<svg width="30" height="30" viewBox="0 0 30 30" fill="none" xmlns="http://www.w3.org/2000/svg">
<path fill-rule="evenodd" clip-rule="evenodd" d="M6.6002 4.20001C5.27471 4.20001 4.2002 5.27455 4.2002 6.60001V23.4C4.2002 24.7255 5.27471 25.8 6.6002 25.8H23.4002C24.7257 25.8 25.8002 24.7255 25.8002 23.4V6.60001C25.8002 5.27455 24.7257 4.20001 23.4002 4.20001H6.6002ZM10.2002 16.2C10.2002 15.5372 9.66294 15 9.0002 15C8.33745 15 7.8002 15.5372 7.8002 16.2V21C7.8002 21.6628 8.33745 22.2 9.0002 22.2C9.66294 22.2 10.2002 21.6628 10.2002 21V16.2ZM15.0002 11.4C15.6629 11.4 16.2002 11.9372 16.2002 12.6V21C16.2002 21.6628 15.6629 22.2 15.0002 22.2C14.3375 22.2 13.8002 21.6628 13.8002 21V12.6C13.8002 11.9372 14.3375 11.4 15.0002 11.4ZM22.2002 9.00001C22.2002 8.33724 21.6629 7.80001 21.0002 7.80001C20.3375 7.80001 19.8002 8.33724 19.8002 9.00001V21C19.8002 21.6628 20.3375 22.2 21.0002 22.2C21.6629 22.2 22.2002 21.6628 22.2002 21V9.00001Z" fill="white"/>
</svg>
